# xmcd
# Track frame offsets:
# 150
# 10072
# 23047
# 33532
# 44867
# 57735
# 66100
# 80350
# 91930
# 106905
# 116542
# 132592
# 142605
# 159467
# 171092
# 185977
# 198955
# 211605
# 231142
# 239727
# 252380
# 264740
# 278767
#
# Disc length: 3924 seconds
# Revision: 0
# Processed by: cddbd v1.4PL0 Copyright (c) Steve Scherf et al.
# Submitted via: VisiTrax 2.9.5.180 - For more info visit www.synapsa.com
#
DISCID=4c0f5217
DTITLE=Cowboy Copas - The legendary
DYEAR=1995
DGENRE=
TTITLE0=A thousand miles of nowhere
TTITLE1=Soft rain
TTITLE2=A penn for your thoughts
TTITLE3=You are the one
TTITLE4=How do you talk to a baby
TTITLE5=Black eyed Susan
TTITLE6=Seven seas from you
TTITLE7=Louisian
TTITLE8=There'll come a time someday
TTITLE9=First things first
TTITLE10=I dreamed of a hillbilly heaven
TTITLE11=God put a rainbow in the clouds
TTITLE12=A picture from life's ather side
TTITLE13=Shake a hand (if you can)
TTITLE14=Cowboy's meditation
TTITLE15=The wreck of the highway
TTITLE16=Who at m door is standing
TTITLE17=Cowboy's deck of cards
TTITLE18=The man upstairs
TTITLE19=What will m answear be
TTITLE20=Family reunion
TTITLE21=The legend of the Robin's Red Breast
TTITLE22=Beyond the sunset (should you go first)
EXTD=
EXTT0=
EXTT1=
EXTT2=
EXTT3=
EXTT4=
EXTT5=
EXTT6=
EXTT7=
EXTT8=
EXTT9=
EXTT10=
EXTT11=
EXTT12=
EXTT13=
EXTT14=
EXTT15=
EXTT16=
EXTT17=
EXTT18=
EXTT19=
EXTT20=
EXTT21=
EXTT22=
PLAYORDER=
